<svg width="84" height="87" viewBox="0 0 84 87" fill="none" xmlns="http://www.w3.org/2000/svg">
<path d="M10.5657 46.8234C10.6521 46.8239 10.7377 46.8073 10.8177 46.7746C10.8976 46.742 10.9704 46.6939 11.0317 46.633L12.0292 45.6355C12.1514 45.5126 12.22 45.3463 12.22 45.1729C12.22 44.9995 12.1514 44.8332 12.0292 44.7102C11.9682 44.6487 11.8956 44.5999 11.8156 44.5666C11.7356 44.5333 11.6499 44.5161 11.5632 44.5161C11.4766 44.5161 11.3908 44.5333 11.3109 44.5666C11.2309 44.5999 11.1583 44.6487 11.0973 44.7102L10.1064 45.7077C9.98413 45.8307 9.91553 45.997 9.91553 46.1704C9.91553 46.3438 9.98413 46.5101 10.1064 46.633C10.2286 46.7543 10.3936 46.8226 10.5657 46.8234Z" fill="#FFC107"/>
<path d="M6.10964 50.6297C6.17097 50.6906 6.24369 50.7387 6.32364 50.7713C6.4036 50.804 6.48922 50.8205 6.57558 50.82C6.66195 50.8205 6.74757 50.804 6.82752 50.7713C6.90748 50.7387 6.9802 50.6906 7.04152 50.6297L8.03246 49.6322C8.09397 49.5712 8.14279 49.4986 8.17611 49.4187C8.20942 49.3387 8.22657 49.2529 8.22657 49.1663C8.22657 49.0797 8.20942 48.9939 8.17611 48.9139C8.14279 48.8339 8.09397 48.7614 8.03246 48.7004C7.9095 48.5781 7.74317 48.5095 7.5698 48.5095C7.39643 48.5095 7.2301 48.5781 7.10714 48.7004L6.10964 49.6979C6.04814 49.7589 5.99931 49.8314 5.966 49.9114C5.93268 49.9914 5.91553 50.0772 5.91553 50.1638C5.91553 50.2504 5.93268 50.3362 5.966 50.4162C5.99931 50.4961 6.04814 50.5687 6.10964 50.6297Z" fill="#FFC107"/>
<path d="M6.10978 44.7102C5.98755 44.8332 5.91895 44.9995 5.91895 45.1729C5.91895 45.3463 5.98755 45.5126 6.10978 45.6355L7.10728 46.633C7.23023 46.7553 7.39656 46.8239 7.56993 46.8239C7.74331 46.8239 7.90963 46.7553 8.03259 46.633C8.15482 46.5101 8.22342 46.3438 8.22342 46.1704C8.22342 45.997 8.15482 45.8307 8.03259 45.7077L7.04165 44.7102C6.98065 44.6487 6.90806 44.5999 6.82809 44.5666C6.74812 44.5333 6.66235 44.5161 6.57572 44.5161C6.48908 44.5161 6.40331 44.5333 6.32334 44.5666C6.24337 44.5999 6.17079 44.6487 6.10978 44.7102Z" fill="#FFC107"/>
<path d="M10.1061 49.6321L11.097 50.6296C11.158 50.6911 11.2306 50.7399 11.3106 50.7732C11.3905 50.8065 11.4763 50.8237 11.5629 50.8237C11.6496 50.8237 11.7354 50.8065 11.8153 50.7732C11.8953 50.7399 11.9679 50.6911 12.0289 50.6296C12.0904 50.5686 12.1392 50.496 12.1725 50.416C12.2058 50.3361 12.223 50.2503 12.223 50.1636C12.223 50.077 12.2058 49.9912 12.1725 49.9113C12.1392 49.8313 12.0904 49.7587 12.0289 49.6977L11.0314 48.7002C10.9702 48.6394 10.8976 48.5913 10.8179 48.5586C10.7381 48.5259 10.6526 48.5092 10.5664 48.5095C10.4802 48.5098 10.3949 48.5271 10.3153 48.5604C10.2358 48.5937 10.1635 48.6423 10.1028 48.7035C9.98009 48.8271 9.9115 48.9943 9.91211 49.1685C9.91242 49.2547 9.9297 49.34 9.96298 49.4196C9.99626 49.4991 10.0449 49.5713 10.1061 49.6321Z" fill="#FFC107"/>
<path d="M65.7824 19.6875C65.8688 19.688 65.9544 19.6714 66.0343 19.6387C66.1143 19.6061 66.187 19.558 66.2483 19.4971L67.2458 18.4996C67.3685 18.3761 67.4371 18.2088 67.4365 18.0347C67.4359 17.8605 67.3661 17.6938 67.2426 17.5711C67.119 17.4483 66.9517 17.3798 66.7776 17.3804C66.6034 17.381 66.4367 17.4508 66.314 17.5743L65.323 18.5653C65.2309 18.6567 65.1679 18.7733 65.1421 18.9005C65.1162 19.0277 65.1287 19.1597 65.1778 19.2798C65.227 19.3999 65.3107 19.5028 65.4183 19.5753C65.5259 19.6479 65.6526 19.6869 65.7824 19.6875Z" fill="#FFC107"/>
<path d="M61.3267 23.507C61.3877 23.5685 61.4603 23.6173 61.5403 23.6506C61.6202 23.6839 61.706 23.7011 61.7926 23.7011C61.8793 23.7011 61.9651 23.6839 62.045 23.6506C62.125 23.6173 62.1976 23.5685 62.2586 23.507L63.2495 22.5095C63.3413 22.384 63.3855 22.2301 63.3744 22.0751C63.3633 21.9201 63.2975 21.7741 63.1888 21.663C63.0801 21.552 62.9355 21.4831 62.7808 21.4687C62.6261 21.4542 62.4713 21.4951 62.3439 21.5842L61.3464 22.5817C61.2215 22.702 61.1493 22.8669 61.1457 23.0403C61.142 23.2136 61.2071 23.3814 61.3267 23.507Z" fill="#FFC107"/>
<path d="M62.3439 19.5169C62.4053 19.5777 62.478 19.6259 62.5579 19.6585C62.6379 19.6912 62.7235 19.7077 62.8099 19.7072C62.9397 19.7067 63.0664 19.6677 63.174 19.5951C63.2816 19.5226 63.3653 19.4197 63.4145 19.2996C63.4636 19.1795 63.4761 19.0475 63.4502 18.9203C63.4244 18.7931 63.3614 18.6764 63.2693 18.585L62.2783 17.5941C62.2176 17.5329 62.1453 17.4843 62.0658 17.451C61.9863 17.4177 61.9009 17.4005 61.8147 17.4002C61.7285 17.3998 61.643 17.4165 61.5632 17.4492C61.4835 17.482 61.4109 17.5301 61.3497 17.5908C61.2885 17.6516 61.2399 17.7238 61.2066 17.8033C61.1734 17.8829 61.1561 17.9682 61.1558 18.0544C61.1555 18.1407 61.1721 18.2261 61.2049 18.3059C61.2376 18.3857 61.2857 18.4582 61.3464 18.5194L62.3439 19.5169Z" fill="#FFC107"/>
<path d="M65.3232 22.5094L66.3142 23.5069C66.3749 23.5689 66.4474 23.6182 66.5274 23.652C66.6074 23.6858 66.6933 23.7034 66.7801 23.7038C66.9105 23.7045 67.0381 23.6664 67.1467 23.5944C67.2553 23.5223 67.34 23.4196 67.39 23.2992C67.44 23.1788 67.453 23.0462 67.4273 22.9184C67.4017 22.7906 67.3386 22.6734 67.246 22.5816L66.2814 21.5841C66.1558 21.4766 65.9943 21.4204 65.8292 21.4268C65.664 21.4331 65.5073 21.5016 65.3905 21.6185C65.2736 21.7354 65.2051 21.892 65.1987 22.0572C65.1924 22.2224 65.2485 22.3838 65.356 22.5094H65.3232Z" fill="#FFC107"/>
<path d="M23.9333 17.7975C24.0197 17.798 24.1053 17.7814 24.1853 17.7488C24.2652 17.7161 24.3379 17.668 24.3993 17.6072L25.3968 16.6097C25.519 16.4867 25.5876 16.3204 25.5876 16.147C25.5876 15.9736 25.519 15.8073 25.3968 15.6844C25.3358 15.6228 25.2632 15.574 25.1832 15.5407C25.1032 15.5074 25.0175 15.4902 24.9308 15.4902C24.8442 15.4902 24.7584 15.5074 24.6784 15.5407C24.5985 15.574 24.5259 15.6228 24.4649 15.6844L23.4674 16.6819C23.3771 16.774 23.3159 16.8907 23.2916 17.0174C23.2672 17.144 23.2808 17.2751 23.3305 17.3941C23.3802 17.5132 23.4639 17.6149 23.5711 17.6867C23.6783 17.7584 23.8043 17.7969 23.9333 17.7975Z" fill="#FFC107"/>
<path d="M19.4773 21.6038C19.5386 21.6647 19.6114 21.7128 19.6913 21.7455C19.7713 21.7781 19.8569 21.7947 19.9433 21.7942C20.1154 21.7934 20.2804 21.7251 20.4026 21.6038L21.4001 20.6064C21.4616 20.5453 21.5105 20.4728 21.5438 20.3928C21.5771 20.3128 21.5943 20.227 21.5943 20.1404C21.5943 20.0538 21.5771 19.968 21.5438 19.888C21.5105 19.8081 21.4616 19.7355 21.4001 19.6745C21.2772 19.5522 21.1108 19.4836 20.9375 19.4836C20.7641 19.4836 20.5978 19.5522 20.4748 19.6745L19.4773 20.672C19.4158 20.733 19.367 20.8056 19.3337 20.8855C19.3004 20.9655 19.2832 21.0513 19.2832 21.1379C19.2832 21.2245 19.3004 21.3103 19.3337 21.3903C19.367 21.4703 19.4158 21.5428 19.4773 21.6038Z" fill="#FFC107"/>
<path d="M20.4749 17.6073C20.5979 17.7295 20.7642 17.7981 20.9376 17.7981C21.111 17.7981 21.2773 17.7295 21.4002 17.6073C21.5225 17.4843 21.5911 17.318 21.5911 17.1446C21.5911 16.9713 21.5225 16.8049 21.4002 16.682L20.4027 15.6845C20.3439 15.6158 20.2715 15.56 20.1901 15.5206C20.1087 15.4812 20.02 15.4591 19.9296 15.4556C19.8392 15.4521 19.7491 15.4673 19.6649 15.5003C19.5807 15.5333 19.5042 15.5833 19.4403 15.6473C19.3763 15.7112 19.3263 15.7877 19.2933 15.8719C19.2603 15.9562 19.245 16.0463 19.2485 16.1367C19.252 16.227 19.2742 16.3157 19.3136 16.3971C19.3529 16.4786 19.4087 16.5509 19.4774 16.6098L20.4749 17.6073Z" fill="#FFC107"/>
<path d="M23.4674 20.6061L24.4649 21.6036C24.5259 21.6651 24.5985 21.714 24.6785 21.7473C24.7584 21.7806 24.8442 21.7977 24.9309 21.7977C25.0175 21.7977 25.1033 21.7806 25.1832 21.7473C25.2632 21.714 25.3358 21.6651 25.3968 21.6036C25.4583 21.5426 25.5071 21.47 25.5404 21.3901C25.5738 21.3101 25.5909 21.2243 25.5909 21.1377C25.5909 21.0511 25.5738 20.9653 25.5404 20.8853C25.5071 20.8053 25.4583 20.7328 25.3968 20.6718L24.3993 19.6874C24.2757 19.5638 24.1081 19.4944 23.9334 19.4944C23.7586 19.4944 23.591 19.5638 23.4674 19.6874C23.3438 19.811 23.2744 19.9786 23.2744 20.1533C23.2744 20.3281 23.3438 20.4957 23.4674 20.6193V20.6061Z" fill="#FFC107"/>
<path d="M67.082 64.2008C67.082 64.3566 67.1282 64.5088 67.2147 64.6383C67.3013 64.7678 67.4243 64.8688 67.5682 64.9284C67.7121 64.988 67.8704 65.0036 68.0232 64.9732C68.1759 64.9428 68.3162 64.8678 68.4264 64.7577C68.5365 64.6475 68.6115 64.5072 68.6419 64.3545C68.6723 64.2017 68.6567 64.0434 68.5971 63.8995C68.5375 63.7556 68.4365 63.6326 68.307 63.5461C68.1775 63.4595 68.0253 63.4133 67.8695 63.4133C67.6607 63.4133 67.4604 63.4963 67.3127 63.644C67.165 63.7917 67.082 63.992 67.082 64.2008Z" fill="#FFC107"/>
<path d="M76.4661 24.1762C76.4661 24.0204 76.4199 23.8682 76.3334 23.7387C76.2469 23.6092 76.1239 23.5082 75.98 23.4486C75.8361 23.389 75.6777 23.3734 75.525 23.4038C75.3722 23.4342 75.2319 23.5092 75.1218 23.6193C75.0116 23.7295 74.9366 23.8698 74.9062 24.0225C74.8759 24.1753 74.8915 24.3336 74.9511 24.4775C75.0107 24.6214 75.1116 24.7444 75.2411 24.831C75.3706 24.9175 75.5229 24.9637 75.6786 24.9637C75.8875 24.9637 76.0878 24.8807 76.2355 24.733C76.3831 24.5853 76.4661 24.385 76.4661 24.1762Z" fill="#FFC107"/>
<path d="M60.4865 45.8194C60.4891 45.6623 60.4446 45.508 60.3588 45.3764C60.2729 45.2448 60.1497 45.1418 60.0049 45.0808C59.8601 45.0198 59.7003 45.0035 59.5462 45.034C59.392 45.0646 59.2505 45.1405 59.1399 45.2521C59.0293 45.3637 58.9545 45.5058 58.9253 45.6602C58.8961 45.8146 58.9138 45.9742 58.976 46.1185C59.0383 46.2628 59.1423 46.3851 59.2746 46.4698C59.4069 46.5545 59.5616 46.5977 59.7187 46.5938C59.9219 46.5887 60.1152 46.5053 60.2583 46.361C60.4014 46.2167 60.4832 46.0226 60.4865 45.8194Z" fill="#FFC107"/>
<path d="M56.3327 15.4219C56.489 15.4232 56.6422 15.3779 56.7727 15.2919C56.9032 15.2059 57.0051 15.083 57.0656 14.9388C57.126 14.7946 57.1421 14.6358 57.1119 14.4824C57.0818 14.329 57.0066 14.1881 56.8961 14.0776C56.7856 13.9671 56.6447 13.8919 56.4913 13.8617C56.3379 13.8316 56.179 13.8477 56.0349 13.9081C55.8907 13.9685 55.7678 14.0705 55.6818 14.201C55.5957 14.3315 55.5505 14.4847 55.5518 14.641C55.5518 14.8481 55.6341 15.0467 55.7805 15.1932C55.927 15.3396 56.1256 15.4219 56.3327 15.4219Z" fill="#FFC107"/>
<path d="M25.0029 27.405C24.8483 27.4051 24.6971 27.4507 24.5682 27.5361C24.4393 27.6216 24.3385 27.743 24.2782 27.8854C24.2179 28.0278 24.2008 28.1848 24.2291 28.3368C24.2575 28.4888 24.3299 28.6291 24.4374 28.7402C24.5449 28.8513 24.6828 28.9283 24.8338 28.9616C24.9848 28.9949 25.1422 28.983 25.2865 28.9274C25.4308 28.8718 25.5555 28.7749 25.6451 28.6489C25.7347 28.5229 25.7852 28.3733 25.7904 28.2188C25.7939 28.1132 25.7761 28.0079 25.7381 27.9094C25.7001 27.8108 25.6427 27.7208 25.5692 27.6449C25.4957 27.569 25.4077 27.5086 25.3104 27.4674C25.2131 27.4262 25.1085 27.405 25.0029 27.405Z" fill="#FFC107"/>
<path d="M14.7133 55.3023C14.8693 55.3023 15.0219 55.2559 15.1515 55.1691C15.2811 55.0823 15.3821 54.9589 15.4415 54.8146C15.5009 54.6703 15.5161 54.5117 15.4852 54.3587C15.4542 54.2058 15.3786 54.0655 15.2678 53.9556C15.157 53.8458 15.0161 53.7713 14.8629 53.7416C14.7097 53.712 14.5511 53.7285 14.4074 53.7891C14.2636 53.8498 14.1411 53.9517 14.0553 54.0821C13.9696 54.2124 13.9245 54.3653 13.9258 54.5214C13.9258 54.6245 13.9462 54.7266 13.9859 54.8217C14.0255 54.9169 14.0836 55.0033 14.1569 55.0759C14.2301 55.1485 14.3169 55.2059 14.4124 55.2447C14.5079 55.2836 14.6102 55.3032 14.7133 55.3023Z" fill="#FFC107"/>
<path d="M8.80664 62.8031C8.80664 62.9589 8.85283 63.1111 8.93936 63.2406C9.02589 63.3701 9.14888 63.4711 9.29278 63.5307C9.43667 63.5903 9.59501 63.6059 9.74777 63.5755C9.90053 63.5451 10.0409 63.4701 10.151 63.36C10.2611 63.2498 10.3361 63.1095 10.3665 62.9568C10.3969 62.804 10.3813 62.6457 10.3217 62.5018C10.2621 62.3579 10.1612 62.2349 10.0317 62.1483C9.90215 62.0618 9.74989 62.0156 9.59414 62.0156C9.38528 62.0156 9.18498 62.0986 9.03729 62.2463C8.88961 62.394 8.80664 62.5943 8.80664 62.8031Z" fill="#FFC107"/>
<path d="M11.1561 22.1222C11.1561 21.9665 11.1099 21.8142 11.0233 21.6847C10.9368 21.5552 10.8138 21.4543 10.6699 21.3947C10.526 21.3351 10.3677 21.3195 10.2149 21.3498C10.0622 21.3802 9.92184 21.4552 9.81171 21.5654C9.70158 21.6755 9.62657 21.8158 9.59619 21.9686C9.5658 22.1213 9.5814 22.2797 9.641 22.4236C9.7006 22.5675 9.80154 22.6905 9.93104 22.777C10.0605 22.8635 10.2128 22.9097 10.3686 22.9097C10.5774 22.9097 10.7777 22.8267 10.9254 22.6791C11.0731 22.5314 11.1561 22.3311 11.1561 22.1222Z" fill="#FFC107"/>
<path d="M10.0801 58.1438C10.0801 58.3178 10.1492 58.4848 10.2723 58.6078C10.3954 58.7309 10.5623 58.8 10.7363 58.8C15.2355 58.868 19.6394 60.1075 23.5135 62.3963C23.6155 62.4541 23.731 62.4836 23.8482 62.4816C23.9621 62.4816 24.074 62.4519 24.173 62.3956C24.2719 62.3392 24.3545 62.258 24.4126 62.1601C24.5013 62.0104 24.527 61.8316 24.4839 61.663C24.4408 61.4944 24.3326 61.3498 24.1829 61.261C20.104 58.8577 15.47 57.5573 10.7363 57.4875C10.5623 57.4875 10.3954 57.5567 10.2723 57.6798C10.1492 57.8028 10.0801 57.9698 10.0801 58.1438Z" fill="#FFC107"/>
<path d="M31.5002 73.7033C31.5002 73.8774 31.5693 74.0443 31.6924 74.1674C31.8155 74.2904 31.9824 74.3596 32.1565 74.3596C32.3305 74.3596 32.4974 74.2904 32.6205 74.1674C32.7436 74.0443 32.8127 73.8774 32.8127 73.7033C32.8127 70.1333 31.0015 66.6749 27.5627 63.7021C27.4313 63.5882 27.26 63.5311 27.0865 63.5434C26.913 63.5557 26.7514 63.6364 26.6374 63.7677C26.5235 63.8992 26.4664 64.0704 26.4787 64.244C26.491 64.4175 26.5717 64.579 26.703 64.693C28.9211 66.5896 31.5002 69.6871 31.5002 73.7033Z" fill="#FFC107"/>
<path d="M77.6671 58.1438C77.6671 57.9698 77.598 57.8028 77.4749 57.6798C77.3518 57.5567 77.1849 57.4875 77.0109 57.4875C76.0963 57.4909 75.1827 57.5456 74.2743 57.6516C74.1003 57.6621 73.9375 57.7412 73.8218 57.8717C73.7061 58.0021 73.647 58.1732 73.6574 58.3472C73.6679 58.5213 73.747 58.6841 73.8775 58.7997C74.0079 58.9154 74.179 58.9746 74.3531 58.9641H74.4252C75.2832 58.8603 76.1466 58.8078 77.0109 58.8066C77.0976 58.8066 77.1835 58.7894 77.2635 58.756C77.3436 58.7226 77.4162 58.6737 77.4772 58.6121C77.5383 58.5505 77.5865 58.4773 77.6191 58.397C77.6517 58.3166 77.668 58.2305 77.6671 58.1438Z" fill="#FFC107"/>
<path d="M69.6738 59.2857C69.6471 59.2031 69.6043 59.1267 69.5478 59.0608C69.4913 58.9949 69.4223 58.9408 69.3448 58.9018C69.2673 58.8627 69.1828 58.8394 69.0962 58.8332C69.0096 58.827 68.9227 58.8381 68.8404 58.8657C61.9038 61.1757 54.9082 66.662 54.9082 73.7035C54.9082 73.8776 54.9773 74.0445 55.1004 74.1676C55.2235 74.2907 55.3904 74.3598 55.5645 74.3598C55.7385 74.3598 55.9054 74.2907 56.0285 74.1676C56.1516 74.0445 56.2207 73.8776 56.2207 73.7035C56.2207 67.3182 62.7832 62.2717 69.2538 60.1126C69.4191 60.0586 69.5562 59.9411 69.6349 59.7861C69.7137 59.631 69.7277 59.4511 69.6738 59.2857Z" fill="#FFC107"/>
<path d="M14.8051 47.4402C14.6311 47.415 14.4542 47.4599 14.3132 47.5651C14.1723 47.6704 14.079 47.8273 14.0537 48.0013C14.0285 48.1754 14.0734 48.3523 14.1787 48.4932C14.2839 48.6341 14.4408 48.7275 14.6148 48.7527C20.5412 49.6317 25.9563 52.6056 29.8778 57.1351C33.7992 61.6646 35.9674 67.4497 35.9889 73.4408C35.9889 73.6149 36.058 73.7818 36.1811 73.9049C36.3042 74.0279 36.4711 74.0971 36.6451 74.0971C36.8192 74.0971 36.9861 74.0279 37.1092 73.9049C37.2323 73.7818 37.3014 73.6149 37.3014 73.4408C37.2846 67.1318 35.005 61.0381 30.8769 56.267C26.7489 51.4959 21.0462 48.3639 14.8051 47.4402Z" fill="#FFC107"/>
<path d="M50.4458 73.4211C50.4458 73.5952 50.5149 73.7621 50.638 73.8852C50.7611 74.0083 50.928 74.0774 51.1021 74.0774C51.2761 74.0774 51.443 74.0083 51.5661 73.8852C51.6892 73.7621 51.7583 73.5952 51.7583 73.4211C51.7583 66.8073 54.3856 60.4644 59.0623 55.7877C63.739 51.111 70.082 48.4836 76.6958 48.4836C76.8698 48.4836 77.0368 48.4145 77.1598 48.2914C77.2829 48.1684 77.3521 48.0014 77.3521 47.8274C77.3521 47.6533 77.2829 47.4864 77.1598 47.3634C77.0368 47.2403 76.8698 47.1711 76.6958 47.1711C69.7339 47.1711 63.0571 49.9368 58.1342 54.8596C53.2114 59.7824 50.4458 66.4592 50.4458 73.4211Z" fill="#FFC107"/>
<path d="M45.1895 73.4214C45.1895 73.5954 45.2586 73.7623 45.3817 73.8854C45.5047 74.0085 45.6717 74.0776 45.8457 74.0776C46.0198 74.0776 46.1867 74.0085 46.3097 73.8854C46.4328 73.7623 46.502 73.5954 46.502 73.4214C46.502 57.9995 53.6091 44.087 64.2207 38.8042C64.371 38.7236 64.484 38.5876 64.5358 38.4251C64.5876 38.2626 64.5741 38.0864 64.4982 37.9337C64.4223 37.781 64.2899 37.6638 64.129 37.607C63.9682 37.5502 63.7916 37.5583 63.6366 37.6295C52.5854 43.1289 45.1895 57.5139 45.1895 73.4214Z" fill="#FFC107"/>
<path d="M21.1311 37.0585C21.1005 37.1391 21.0861 37.2249 21.0887 37.3111C21.0912 37.3972 21.1107 37.482 21.1461 37.5607C21.1814 37.6393 21.2319 37.7101 21.2947 37.7692C21.3574 37.8283 21.4312 37.8745 21.5118 37.9051C33.134 42.2954 41.2452 56.897 41.2452 73.4213C41.2452 73.5954 41.3143 73.7623 41.4374 73.8854C41.5605 74.0085 41.7274 74.0776 41.9015 74.0776C42.0755 74.0776 42.2424 74.0085 42.3655 73.8854C42.4886 73.7623 42.5577 73.5954 42.5577 73.4213C42.5577 56.3588 34.0986 41.2651 21.9777 36.6713C21.8967 36.6409 21.8105 36.6268 21.724 36.6298C21.6376 36.6328 21.5526 36.6529 21.4739 36.6889C21.3952 36.7248 21.3244 36.776 21.2656 36.8395C21.2068 36.9029 21.1611 36.9774 21.1311 37.0585Z" fill="#FFC107"/>
<path d="M43.8701 41.8227C44.0442 41.8227 44.2111 41.7536 44.3342 41.6305C44.4572 41.5074 44.5264 41.3405 44.5264 41.1665V26.2827C44.5264 26.1087 44.4572 25.9417 44.3342 25.8187C44.2111 25.6956 44.0442 25.6265 43.8701 25.6265C43.6961 25.6265 43.5291 25.6956 43.4061 25.8187C43.283 25.9417 43.2139 26.1087 43.2139 26.2827V41.1665C43.2139 41.3405 43.283 41.5074 43.4061 41.6305C43.5291 41.7536 43.6961 41.8227 43.8701 41.8227Z" fill="#FFC107"/>
<path d="M43.2139 48.5624C43.2139 48.7364 43.283 48.9034 43.4061 49.0264C43.5291 49.1495 43.6961 49.2187 43.8701 49.2187C44.0442 49.2187 44.2111 49.1495 44.3342 49.0264C44.4572 48.9034 44.5264 48.7364 44.5264 48.5624V44.8218C44.5264 44.6477 44.4572 44.4808 44.3342 44.3577C44.2111 44.2347 44.0442 44.1655 43.8701 44.1655C43.6961 44.1655 43.5291 44.2347 43.4061 44.3577C43.283 44.4808 43.2139 44.6477 43.2139 44.8218V48.5624Z" fill="#FFC107"/>
<path d="M33.1471 30.752C33.2252 30.7511 33.3028 30.7379 33.3767 30.7126C33.5391 30.6521 33.6709 30.5298 33.7435 30.3724C33.816 30.215 33.8234 30.0354 33.7639 29.8726L32.0577 25.2788C32.0279 25.1978 31.9825 25.1235 31.9241 25.06C31.8656 24.9965 31.7952 24.9452 31.7169 24.909C31.6386 24.8727 31.5539 24.8522 31.4677 24.8487C31.3815 24.8452 31.2954 24.8586 31.2144 24.8884C31.1334 24.9181 31.059 24.9635 30.9956 25.022C30.9321 25.0804 30.8808 25.1508 30.8445 25.2292C30.8083 25.3075 30.7878 25.3921 30.7842 25.4784C30.7807 25.5646 30.7942 25.6507 30.8239 25.7317L32.5302 30.3254C32.5771 30.451 32.6614 30.5592 32.7717 30.6355C32.882 30.7118 33.013 30.7524 33.1471 30.752Z" fill="#FFC107"/>
<path d="M34.5583 33.9151C34.3947 33.9743 34.2614 34.096 34.1875 34.2536C34.1137 34.4111 34.1054 34.5914 34.1645 34.7551L38.2661 45.8588C38.3119 45.9856 38.3958 46.0953 38.5061 46.1728C38.6165 46.2503 38.7481 46.2919 38.883 46.2919C38.9618 46.2919 39.0399 46.2763 39.1127 46.246C39.275 46.1855 39.4068 46.0632 39.4794 45.9058C39.5519 45.7484 39.5593 45.5688 39.4998 45.406L35.3983 34.3022C35.3377 34.1399 35.2155 34.008 35.0581 33.9355C34.9007 33.863 34.721 33.8556 34.5583 33.9151Z" fill="#FFC107"/>
<path d="M41.0484 49.606C41.0187 49.525 40.9733 49.4506 40.9148 49.3872C40.8563 49.3237 40.7859 49.2724 40.7076 49.2361C40.6293 49.1999 40.5446 49.1794 40.4584 49.1758C40.3722 49.1723 40.2861 49.1858 40.2051 49.2155C40.1241 49.2453 40.0497 49.2907 39.9863 49.3491C39.9228 49.4076 39.8715 49.478 39.8352 49.5563C39.799 49.6346 39.7785 49.7193 39.775 49.8055C39.7714 49.8917 39.7849 49.9778 39.8146 50.0588L41.6128 54.9216C41.6593 55.0462 41.7426 55.1537 41.8516 55.2298C41.9606 55.306 42.0901 55.3473 42.2231 55.3482C42.3014 55.3489 42.3792 55.3355 42.4528 55.3088C42.6151 55.2483 42.747 55.126 42.8195 54.9686C42.892 54.8113 42.8994 54.6316 42.84 54.4688L41.0484 49.606Z" fill="#FFC107"/>
<path d="M55.453 27.7922C55.5245 27.8181 55.6 27.8315 55.6761 27.8315C55.811 27.8315 55.9426 27.7899 56.0529 27.7124C56.1633 27.6349 56.2471 27.5253 56.293 27.3984L56.9492 25.7053C56.979 25.6243 56.9924 25.5382 56.9889 25.452C56.9854 25.3658 56.9649 25.2811 56.9286 25.2028C56.8924 25.1245 56.8411 25.0541 56.7776 24.9956C56.7141 24.9371 56.6398 24.8917 56.5588 24.862C56.4778 24.8323 56.3917 24.8188 56.3055 24.8223C56.2192 24.8259 56.1346 24.8463 56.0563 24.8826C55.9779 24.9189 55.9075 24.9702 55.8491 25.0336C55.7906 25.0971 55.7452 25.1715 55.7155 25.2525L55.0592 26.9456C55.029 27.027 55.0151 27.1136 55.0186 27.2004C55.022 27.2872 55.0427 27.3724 55.0793 27.4511C55.1159 27.5299 55.1678 27.6006 55.2319 27.6591C55.2961 27.7177 55.3712 27.7629 55.453 27.7922Z" fill="#FFC107"/>
<path d="M54.0159 29.7806L50.2556 39.9721C50.1962 40.1349 50.2035 40.3146 50.2761 40.4719C50.3486 40.6293 50.4805 40.7516 50.6428 40.8121C50.7154 40.8431 50.7936 40.8588 50.8725 40.8581C51.0074 40.858 51.139 40.8164 51.2493 40.7389C51.3597 40.6614 51.4435 40.5518 51.4894 40.4249L55.2497 30.2334C55.3097 30.0698 55.3023 29.889 55.2291 29.7309C55.1559 29.5727 55.0228 29.4501 54.8592 29.3901C54.6956 29.33 54.5149 29.3374 54.3567 29.4107C54.1986 29.4839 54.076 29.617 54.0159 29.7806Z" fill="#FFC107"/>
<path d="M46.8823 51.6666C47.0171 51.6665 47.1487 51.6249 47.2591 51.5474C47.3695 51.4699 47.4533 51.3603 47.4991 51.2334L50.0191 44.3953C50.0493 44.2403 50.0225 44.0796 49.9438 43.9428C49.865 43.8059 49.7396 43.702 49.5904 43.6501C49.4413 43.5983 49.2784 43.602 49.1318 43.6605C48.9851 43.719 48.8645 43.8285 48.792 43.9687L46.2654 50.7806C46.206 50.9434 46.2133 51.1231 46.2859 51.2804C46.3584 51.4378 46.4902 51.5601 46.6526 51.6206C46.7251 51.6516 46.8034 51.6673 46.8823 51.6666Z" fill="#FFC107"/>
<path d="M35.9623 19.5562C35.9914 19.6856 36.059 19.8032 36.1562 19.8934C36.2535 19.9836 36.3758 20.0422 36.507 20.0615L40.2607 20.6325L39.9851 24.4256C39.9774 24.5557 40.0086 24.6852 40.0748 24.7976C40.141 24.9099 40.2391 25 40.3567 25.0563C40.4743 25.1126 40.606 25.1327 40.735 25.1138C40.864 25.095 40.9845 25.0382 41.081 24.9506L43.8767 22.3715L46.6657 24.9375C46.7868 25.0508 46.9462 25.1141 47.112 25.1146C47.2098 25.1141 47.3062 25.0916 47.3942 25.049C47.5153 24.9905 47.6155 24.8962 47.6813 24.7788C47.747 24.6614 47.7751 24.5266 47.7617 24.3928L47.486 20.5996L51.2464 20.0287C51.3774 20.0093 51.4995 19.9507 51.5966 19.8605C51.6937 19.7704 51.7613 19.653 51.7904 19.5238C51.8195 19.3945 51.8088 19.2595 51.7597 19.1364C51.7107 19.0134 51.6255 18.9081 51.5154 18.8343L48.3785 16.6884L50.2751 13.4071C50.3356 13.2933 50.3612 13.1643 50.3487 13.036C50.3363 12.9077 50.2864 12.786 50.2052 12.6859C50.124 12.5858 50.0152 12.5118 49.8922 12.4732C49.7693 12.4346 49.6377 12.433 49.5139 12.4687L45.8782 13.5843L44.487 10.0537C44.4386 9.93131 44.3545 9.82628 44.2457 9.75226C44.1369 9.67825 44.0083 9.63867 43.8767 9.63867C43.745 9.63867 43.6165 9.67825 43.5076 9.75226C43.3988 9.82628 43.3147 9.93131 43.2664 10.0537L41.8685 13.5843L38.2329 12.4687C38.1074 12.4307 37.9734 12.4311 37.8481 12.47C37.7229 12.5089 37.6121 12.5844 37.5302 12.6868C37.4483 12.7892 37.3989 12.9138 37.3885 13.0446C37.378 13.1753 37.407 13.3062 37.4717 13.4203L39.3682 16.7015L36.2314 18.8475C36.1187 18.9232 36.0323 19.0321 35.9841 19.1591C35.9359 19.286 35.9283 19.4248 35.9623 19.5562ZM40.6085 17.4628C40.744 17.3693 40.8394 17.2285 40.8758 17.068C40.9123 16.9076 40.8872 16.7393 40.8054 16.5965L39.4404 14.2143L42.0654 15.0215C42.2231 15.0693 42.393 15.056 42.5413 14.9842C42.6896 14.9125 42.8056 14.7876 42.866 14.6343L43.8767 12.0815L44.8807 14.6343C44.9412 14.7876 45.0571 14.9125 45.2055 14.9842C45.3538 15.056 45.5237 15.0693 45.6814 15.0215L48.3064 14.2143L46.9414 16.5965C46.8596 16.7393 46.8345 16.9076 46.8709 17.068C46.9074 17.2285 47.0028 17.3693 47.1382 17.4628L49.4023 19.0312L46.692 19.4446C46.5273 19.4691 46.378 19.5552 46.2744 19.6856C46.1708 19.816 46.1207 19.9809 46.1342 20.1468L46.3376 22.8834L44.3229 21C44.2019 20.8867 44.0425 20.8233 43.8767 20.8228C43.7109 20.8233 43.5514 20.8867 43.4304 21L41.4157 22.8637L41.6126 20.1271C41.6261 19.9612 41.5759 19.7963 41.4723 19.6659C41.3688 19.5355 41.2195 19.4494 41.0548 19.425L38.3445 19.0312L40.6085 17.4628Z" fill="#FFC107"/>
<path d="M62.291 35.3981C62.3082 35.5288 62.3643 35.6513 62.4521 35.7496C62.5399 35.8479 62.6553 35.9175 62.7832 35.9493L66.4779 36.8484L65.8676 40.6022C65.8488 40.7297 65.8681 40.86 65.9229 40.9767C65.9778 41.0935 66.0658 41.1914 66.176 41.2584C66.2898 41.3266 66.4215 41.3587 66.5539 41.3505C66.6863 41.3423 66.8131 41.2942 66.9176 41.2125L69.9232 38.8893L72.476 41.7047C72.5374 41.7726 72.6123 41.827 72.6959 41.8643C72.7795 41.9016 72.8701 41.921 72.9616 41.9212C73.0403 41.9198 73.1181 41.9042 73.1913 41.8753C73.3149 41.8292 73.4216 41.7469 73.4977 41.6392C73.5738 41.5315 73.6157 41.4034 73.6179 41.2715L73.677 37.4718L77.4701 37.2356C77.6013 37.227 77.727 37.1791 77.8307 37.0982C77.9344 37.0173 78.0115 36.9071 78.0518 36.7819C78.0921 36.6567 78.0939 36.5223 78.0568 36.396C78.0198 36.2698 77.9457 36.1576 77.8441 36.074L74.9107 33.659L77.0829 30.5418C77.1577 30.4327 77.1977 30.3034 77.1977 30.1711C77.1977 30.0387 77.1577 29.9095 77.0829 29.8003C77.0116 29.6961 76.9118 29.6147 76.7954 29.5658C76.679 29.5169 76.551 29.5026 76.4266 29.5247L72.7057 30.3122L71.6295 26.67C71.5922 26.5441 71.518 26.4323 71.4166 26.349C71.3151 26.2657 71.191 26.2147 71.0602 26.2027C70.9295 26.1907 70.7982 26.2182 70.6832 26.2816C70.5683 26.345 70.475 26.4414 70.4154 26.5584L68.7091 29.9578L65.1916 28.5272C65.0666 28.4614 64.9237 28.4378 64.7841 28.4597C64.6446 28.4817 64.5158 28.5481 64.417 28.6491C64.3183 28.7501 64.2547 28.8803 64.2358 29.0203C64.2169 29.1603 64.2438 29.3027 64.3123 29.4262L65.907 32.8715L62.6257 34.7353C62.5095 34.799 62.4153 34.8965 62.3556 35.0148C62.2959 35.1331 62.2733 35.2667 62.291 35.3981ZM67.1013 33.7247C67.2469 33.6439 67.3564 33.5109 67.4075 33.3525C67.4587 33.1941 67.4478 33.0222 67.377 32.8715L66.222 30.3843L68.7682 31.4147C68.9213 31.4767 69.0921 31.4787 69.2466 31.4203C69.4011 31.3619 69.5278 31.2474 69.6016 31.0997L70.8288 28.6453L71.6098 31.2703C71.6559 31.4284 71.7597 31.5634 71.9007 31.6485C72.0418 31.7336 72.2096 31.7626 72.371 31.7297L75.0551 31.1587L73.4998 33.4162C73.4058 33.551 73.3658 33.7161 73.3877 33.8789C73.4096 34.0417 73.4917 34.1904 73.6179 34.2956L75.7376 36.0412L73.001 36.2118C72.8339 36.2219 72.6769 36.2954 72.5622 36.4174C72.4476 36.5394 72.3838 36.7007 72.3841 36.8681L72.3448 39.6112L70.5007 37.5768C70.4393 37.5089 70.3644 37.4545 70.2808 37.4172C70.1972 37.3799 70.1067 37.3605 70.0151 37.3603C69.8701 37.3607 69.7293 37.4092 69.6148 37.4981L67.4426 39.1781L67.8823 36.4678C67.9084 36.3049 67.8723 36.1382 67.7811 36.0008C67.6899 35.8634 67.5503 35.7654 67.3901 35.7262L64.7257 35.07L67.1013 33.7247Z" fill="#FFC107"/>
<path d="M7.21877 35.0371C7.25525 35.1643 7.32928 35.2774 7.43116 35.3617C7.53304 35.446 7.65802 35.4976 7.78971 35.5096L11.5697 35.8771L11.5041 39.6768C11.5016 39.8079 11.5384 39.9367 11.6097 40.0466C11.6811 40.1566 11.7837 40.2426 11.9044 40.2937C11.9858 40.3268 12.0725 40.3446 12.1603 40.3462C12.2472 40.3458 12.3331 40.3283 12.413 40.2945C12.493 40.2607 12.5655 40.2113 12.6263 40.1493L15.2513 37.4193L18.1847 39.8409C18.2865 39.9243 18.411 39.9751 18.5421 39.9868C18.6732 39.9985 18.8047 39.9705 18.9197 39.9065C19.0335 39.8423 19.1256 39.7455 19.1841 39.6285C19.2425 39.5116 19.2647 39.3799 19.2478 39.2503L18.7688 35.4834L22.4831 34.7025C22.6116 34.6756 22.7291 34.6108 22.8204 34.5164C22.9117 34.422 22.9726 34.3025 22.9952 34.1732C23.0178 34.0438 23.0011 33.9107 22.9472 33.791C22.8934 33.6713 22.8049 33.5704 22.6931 33.5015L19.4447 31.5328L21.151 28.14C21.21 28.0232 21.2328 27.8915 21.2164 27.7617C21.2001 27.6319 21.1453 27.51 21.0591 27.4115C20.9716 27.3113 20.8557 27.2401 20.7267 27.2073C20.5978 27.1745 20.462 27.1816 20.3372 27.2278L16.7738 28.5403L15.225 25.0818C15.1704 24.9616 15.0808 24.8607 14.9679 24.7922C14.8551 24.7237 14.7241 24.6909 14.5923 24.698C14.4605 24.7051 14.3338 24.7517 14.2289 24.8319C14.1241 24.9121 14.0458 25.0221 14.0044 25.1475L12.81 28.7568L9.1219 27.8446C8.99366 27.8122 8.85862 27.8193 8.73449 27.865C8.61036 27.9107 8.50292 27.9928 8.42627 28.1006C8.35292 28.2091 8.31372 28.3371 8.31372 28.4681C8.31372 28.5991 8.35292 28.7271 8.42627 28.8356L10.5 32.025L7.48783 34.3415C7.37768 34.4165 7.29293 34.5231 7.24487 34.6474C7.19681 34.7717 7.18771 34.9076 7.21877 35.0371ZM11.7469 32.6943C11.8772 32.5928 11.9645 32.4459 11.9912 32.2829C12.018 32.1199 11.9823 31.9528 11.8913 31.815L10.4147 29.5312L13.0791 30.1875C13.2399 30.2271 13.4097 30.2045 13.5546 30.1242C13.6994 30.0439 13.8085 29.9118 13.86 29.7543L14.7263 27.1293L15.8747 29.6231C15.9438 29.7725 16.0664 29.8904 16.2183 29.9536C16.3703 30.0168 16.5404 30.0207 16.695 29.9643L19.2741 29.0128L18.0403 31.5C17.9667 31.6468 17.9508 31.8158 17.9958 31.9738C18.0407 32.1317 18.1433 32.267 18.2831 32.3531L20.626 33.7771L17.9419 34.3415C17.7806 34.3764 17.6384 34.4707 17.5435 34.6057C17.4487 34.7407 17.4082 34.9064 17.43 35.07L17.7778 37.7868L15.6647 36.0412C15.5377 35.9347 15.375 35.8803 15.2094 35.8888C15.0439 35.8973 14.8877 35.9682 14.7722 36.0871L12.8625 38.0625L12.915 35.3193C12.9157 35.1551 12.8547 34.9965 12.7441 34.875C12.6336 34.7535 12.4815 34.6779 12.3178 34.6631L9.58783 34.4006L11.7469 32.6943Z" fill="#FFC107"/>
<path d="M61.1668 65.9167C61.1668 76.5024 52.5859 85.0833 42.0002 85.0833C31.4148 85.0833 22.8335 76.5024 22.8335 65.9167C22.8335 55.3313 31.4148 46.75 42.0002 46.75C52.5859 46.75 61.1668 55.3313 61.1668 65.9167Z" fill="#27AE60"/>
<path d="M61.1668 63.9999C61.1668 74.5857 52.5859 83.1666 42.0002 83.1666C31.4148 83.1666 22.8335 74.5857 22.8335 63.9999C22.8335 53.4146 31.4148 44.8333 42.0002 44.8333C52.5859 44.8333 61.1668 53.4146 61.1668 63.9999Z" fill="#2ECC71"/>
<path d="M49.6668 58.25L38.1668 69.75L33.3752 64.9583L29.3022 68.9833L34.0939 73.775L37.9272 77.6083L38.1668 77.7999L53.7397 62.275L49.6668 58.25Z" fill="#27AE60"/>
<path d="M49.6668 56.3333L38.1668 67.8333L33.3752 63.0416L29.3022 67.0665L34.0939 71.8582L37.9272 75.6915L38.1668 75.8832L53.7397 60.3582L49.6668 56.3333Z" fill="#ECF0F1"/>
</svg>
