<svg width="32" height="32" viewBox="0 0 32 32" fill="none" xmlns="http://www.w3.org/2000/svg">
<path d="M16 25.3333C10.8 25.3333 6.66667 21.2 6.66667 16C6.66667 10.8 10.8 6.66667 16 6.66667C18.6667 6.66667 21.2 7.86667 22.9333 9.73334L20.5333 10.1333C19.8667 10.2667 19.3333 10.9333 19.4667 11.7333C19.6 12.4 20.1333 12.8 20.8 12.8C20.9333 12.8 20.9333 12.8 21.0667 12.8L26.6667 11.7333C27.3333 11.6 27.8667 10.9333 27.7333 10.1333L26.6667 4.66667C26.5333 4.00001 25.8667 3.46667 25.0667 3.60001C24.4 3.73334 23.8667 4.40001 24 5.20001L24.4 7.46667C22.1333 5.33334 19.2 4.00001 16 4.00001C11.6 4.00001 7.73333 6.40001 5.6 10C4.53333 11.8667 4 13.8667 4 16C4 18.1333 4.53333 20.1333 5.6 22C6.66667 23.8667 8.13333 25.3333 10 26.4C11.8667 27.4667 13.8667 28 16 28C16.5333 28 17.0667 27.6 17.2 27.2C17.3333 27.0667 17.3333 26.8 17.3333 26.6667C17.3333 26.5333 17.3333 26.2667 17.2 26.1333C17.0667 25.7333 16.5333 25.3333 16 25.3333Z" fill="#3F3F3F"/>
<path d="M26.6666 17.3334C27.403 17.3334 27.9999 16.7364 27.9999 16C27.9999 15.2636 27.403 14.6667 26.6666 14.6667C25.9302 14.6667 25.3333 15.2636 25.3333 16C25.3333 16.7364 25.9302 17.3334 26.6666 17.3334Z" fill="#3F3F3F"/>
<path d="M26.373 22.0332C26.7412 21.3955 26.5227 20.5801 25.885 20.2119C25.2473 19.8437 24.4318 20.0622 24.0636 20.6999C23.6954 21.3376 23.9139 22.153 24.5516 22.5212C25.1893 22.8894 26.0048 22.6709 26.373 22.0332Z" fill="#3F3F3F"/>
<path d="M21.9807 26.3591C22.6184 25.9909 22.8369 25.1754 22.4687 24.5377C22.1005 23.9 21.285 23.6815 20.6473 24.0497C20.0096 24.4179 19.7912 25.2334 20.1593 25.8711C20.5275 26.5088 21.343 26.7273 21.9807 26.3591Z" fill="#3F3F3F"/>
<path d="M17.3334 15.4667V12C17.3334 11.2 16.8001 10.6667 16.0001 10.6667C15.2001 10.6667 14.6667 11.2 14.6667 12V16C14.6667 16.4 14.8001 16.6667 15.0667 16.9334L17.7334 19.6C18.0001 19.8667 18.4001 20 18.6667 20C18.9334 20 19.3334 19.8667 19.6001 19.6C20.1334 19.0667 20.1334 18.2667 19.6001 17.7334L17.3334 15.4667Z" fill="#3F3F3F"/>
</svg>
